<svg width="278" height="38" viewBox="0 0 278 38" fill="none" xmlns="http://www.w3.org/2000/svg">
<path d="M18.0489 2.92705C18.3483 2.00574 19.6517 2.00574 19.9511 2.92705L23.0413 12.4377C23.1751 12.8497 23.5591 13.1287 23.9923 13.1287H33.9924C34.9611 13.1287 35.3639 14.3683 34.5802 14.9377L26.4899 20.8156C26.1395 21.0702 25.9928 21.5216 26.1267 21.9336L29.2169 31.4443C29.5162 32.3656 28.4617 33.1317 27.678 32.5623L19.5878 26.6844C19.2373 26.4298 18.7627 26.4298 18.4122 26.6844L10.322 32.5623C9.53826 33.1317 8.48378 32.3656 8.78314 31.4443L11.8733 21.9336C12.0072 21.5216 11.8605 21.0702 11.5101 20.8156L3.41982 14.9377C2.63611 14.3683 3.03889 13.1287 4.00761 13.1287H14.0077C14.4409 13.1287 14.8249 12.8497 14.9587 12.4377L18.0489 2.92705Z" fill="#E58F17"/>
<path d="M78.0489 2.92705C78.3483 2.00574 79.6517 2.00574 79.9511 2.92705L83.0413 12.4377C83.1751 12.8497 83.5591 13.1287 83.9923 13.1287H93.9924C94.9611 13.1287 95.3639 14.3683 94.5802 14.9377L86.4899 20.8156C86.1395 21.0702 85.9928 21.5216 86.1267 21.9336L89.2169 31.4443C89.5162 32.3656 88.4617 33.1317 87.678 32.5623L79.5878 26.6844C79.2373 26.4298 78.7627 26.4298 78.4122 26.6844L70.322 32.5623C69.5383 33.1317 68.4838 32.3656 68.7831 31.4443L71.8733 21.9336C72.0072 21.5216 71.8605 21.0702 71.5101 20.8156L63.4198 14.9377C62.6361 14.3683 63.0389 13.1287 64.0076 13.1287H74.0077C74.4409 13.1287 74.8249 12.8497 74.9587 12.4377L78.0489 2.92705Z" fill="#E58F17"/>
<path d="M138.049 2.92705C138.348 2.00574 139.652 2.00574 139.951 2.92705L143.041 12.4377C143.175 12.8497 143.559 13.1287 143.992 13.1287H153.992C154.961 13.1287 155.364 14.3683 154.58 14.9377L146.49 20.8156C146.139 21.0702 145.993 21.5216 146.127 21.9336L149.217 31.4443C149.516 32.3656 148.462 33.1317 147.678 32.5623L139.588 26.6844C139.237 26.4298 138.763 26.4298 138.412 26.6844L130.322 32.5623C129.538 33.1317 128.484 32.3656 128.783 31.4443L131.873 21.9336C132.007 21.5216 131.861 21.0702 131.51 20.8156L123.42 14.9377C122.636 14.3683 123.039 13.1287 124.008 13.1287H134.008C134.441 13.1287 134.825 12.8497 134.959 12.4377L138.049 2.92705Z" fill="#E58F17"/>
<path d="M198.049 2.92705C198.348 2.00574 199.652 2.00574 199.951 2.92705L203.041 12.4377C203.175 12.8497 203.559 13.1287 203.992 13.1287H213.992C214.961 13.1287 215.364 14.3683 214.58 14.9377L206.49 20.8156C206.139 21.0702 205.993 21.5216 206.127 21.9336L209.217 31.4443C209.516 32.3656 208.462 33.1317 207.678 32.5623L199.588 26.6844C199.237 26.4298 198.763 26.4298 198.412 26.6844L190.322 32.5623C189.538 33.1317 188.484 32.3656 188.783 31.4443L191.873 21.9336C192.007 21.5216 191.861 21.0702 191.51 20.8156L183.42 14.9377C182.636 14.3683 183.039 13.1287 184.008 13.1287H194.008C194.441 13.1287 194.825 12.8497 194.959 12.4377L198.049 2.92705Z" fill="#E58F17"/>
<path d="M258.049 2.92705C258.348 2.00574 259.652 2.00574 259.951 2.92705L263.041 12.4377C263.175 12.8497 263.559 13.1287 263.992 13.1287H273.992C274.961 13.1287 275.364 14.3683 274.58 14.9377L266.49 20.8156C266.139 21.0702 265.993 21.5216 266.127 21.9336L269.217 31.4443C269.516 32.3656 268.462 33.1317 267.678 32.5623L259.588 26.6844C259.237 26.4298 258.763 26.4298 258.412 26.6844L250.322 32.5623C249.538 33.1317 248.484 32.3656 248.783 31.4443L251.873 21.9336C252.007 21.5216 251.861 21.0702 251.51 20.8156L243.42 14.9377C242.636 14.3683 243.039 13.1287 244.008 13.1287H254.008C254.441 13.1287 254.825 12.8497 254.959 12.4377L258.049 2.92705Z" fill="#C4C4C4"/>
</svg>
